:SAMPLES-PER-SECOND 30
:FULLY-SPECIFIED
:DEGREES
838
root  -24.5864 37.6518 3.92218 118.143 -84.5245 -125.934
RightUpLeg  -24.6343 -21.3132 4.52308
RightLeg  31.5787 -0.169471 -0.36671
RightFoot  0.629523 0.628583 -5.93956
RightToes  0.00048216 0.542163 -0.142577
Spine  28.2351 -2.99338 9.79647
Spine1  12.5219 -0.928949 1.98217
HEad  4.66925 -1.02229 -4.55296
LeftShoulder1  10.775 -16.5425 -46.8975
LeftArm  12.0727 -7.33124 -33.4668
LeftForeArm  28.9608 -67.7302 -25.4317
LeftHand  -0.25398 0.0180481 5.50724
RightShoulder  6.28488 11.7389 35.2607
RightArm  8.8223 1.00729 36.7805
RightForeArm  -3.18957 71.8443 40.0672
RightHand  -11.2349 22.4088 -44.9044
LeftUpLeg  -14.8361 9.60121 7.62791
LeftLeg  71.0545 3.24174 11.3868
LeftFoot  6.17872 -0.619589 3.85263
LeftToes  1.06245e-005 4.65856e-005 -8.18504e-006
839
root  -25.5917 37.9784 3.53753 113.304 -85.1901 -120.281
RightUpLeg  -23.5488 -21.3943 4.16988
RightLeg  31.6109 -0.405527 -0.52917
RightFoot  -0.624777 0.49701 -5.33398
RightToes  0.00048216 0.542163 -0.142577
Spine  30.514 -2.67656 8.91555
Spine1  12.6836 -1.06643 2.77158
HEad  2.22386 -1.9746 -3.6194
LeftShoulder1  10.9222 -16.855 -46.8049
LeftArm  11.2991 -11.1792 -34.0781
LeftForeArm  25.828 -64.834 -21.9712
LeftHand  -0.25398 0.0180481 5.50724
RightShoulder  6.31514 11.8841 35.0714
RightArm  7.93007 5.65059 37.053
RightForeArm  -8.38763 69.1819 33.7224
RightHand  -10.5682 21.5886 -43.6752
LeftUpLeg  -21.1753 9.46588 6.02218
LeftLeg  70.2806 2.42252 8.44742
LeftFoot  3.60176 -0.379583 2.64306
LeftToes  1.06245e-005 4.65856e-005 -8.18504e-006
840
root  -26.591 38.3114 3.2223 111.798 -85.6057 -117.651
RightUpLeg  -22.6864 -21.3102 4.01717
RightLeg  31.367 -0.844178 -0.814167
RightFoot  -2.49397 0.36559 -4.94149
RightToes  0.00048216 0.542163 -0.142577
Spine  32.3355 -2.4087 8.70975
Spine1  12.9647 -0.926618 2.78383
HEad  -0.0220171 -2.87605 -2.92278
LeftShoulder1  11.0397 -17.213 -46.4805
LeftArm  10.9373 -15.4408 -34.7128
LeftForeArm  23.2967 -61.2321 -18.6184
LeftHand  -0.25398 0.0180481 5.50724
RightShoulder  6.27798 12.0054 34.5179
RightArm  6.63095 10.152 37.9381
RightForeArm  -12.4618 65.7028 27.8515
RightHand  -9.90044 20.7448 -42.3889
LeftUpLeg  -25.8691 9.75156 4.19012
LeftLeg  64.4172 2.8666 7.12492
LeftFoot  0.563152 -0.0327915 0.35028
LeftToes  1.06245e-005 4.65856e-005 -8.18504e-006
841
root  -27.5549 38.6161 2.93111 114.166 -85.9221 -118.876
RightUpLeg  -21.7084 -21.154 3.95419
RightLeg  30.6536 -1.20197 -1.02543
RightFoot  -4.23497 0.268925 -4.78816
RightToes  0.00048216 0.542163 -0.142577
Spine  34.1389 -2.0263 8.46689
Spine1  13.0255 -0.553508 2.39414
HEad  -1.86279 -3.62081 -2.3306
LeftShoulder1  11.0311 -17.535 -45.706
LeftArm  11.1472 -19.7786 -35.8584
LeftForeArm  21.2091 -57.0239 -15.6113
LeftHand  -0.25398 0.0180481 5.50724
RightShoulder  6.17013 12.0818 33.6354
RightArm  5.39594 14.3595 39.0411
RightForeArm  -16.0381 61.727 23.1481
RightHand  -9.27048 19.8498 -41.2243
LeftUpLeg  -28.6313 10.9252 1.89479
LeftLeg  53.9319 4.84244 7.49474
LeftFoot  -1.13993 -0.127384 1.5094
LeftToes  1.06245e-005 4.65856e-005 -8.18504e-006
842
root  -28.4542 38.9319 2.66458 120.117 -86.5264 -123.57
RightUpLeg  -20.9134 -20.9842 3.56662
RightLeg  29.5613 -1.18012 -0.972246
RightFoot  -4.78999 0.235014 -4.66408
RightToes  0.00048216 0.542163 -0.142577
Spine  36.1206 -1.60393 7.5259
Spine1  12.919 -0.171088 1.75439
HEad  -3.37552 -3.94247 -1.98642
LeftShoulder1  10.8711 -17.766 -44.5028
LeftArm  11.3522 -23.8993 -37.6423
LeftForeArm  19.2763 -52.6688 -13.2147
LeftHand  -0.25398 0.0180481 5.50724
RightShoulder  6.04845 12.1705 32.6381
RightArm  4.54905 18.4458 40.0957
RightForeArm  -19.4255 57.627 19.624
RightHand  -8.5325 18.7032 -39.8894
LeftUpLeg  -29.6383 13.4911 -1.26677
LeftLeg  39.2263 7.0957 6.69145
LeftFoot  -1.51966 -0.191468 2.30107
LeftToes  1.06245e-005 4.65856e-005 -8.18504e-006
843
root  -29.3841 39.1002 2.48668 126.206 -86.6031 -128.212
RightUpLeg  -20.9975 -20.7096 3.6223
RightLeg  29.6973 -1.16912 -0.96816
RightFoot  -5.66826 0.20415 -4.9209
RightToes  0.00048216 0.542163 -0.142577
Spine  37.8362 -1.49578 7.2053
Spine1  13.0551 0.196567 0.901117
HEad  -4.71626 -3.84435 -2.02221
LeftShoulder1  10.7198 -18.0442 -43.2499
LeftArm  10.887 -27.7603 -39.4482
LeftForeArm  17.7993 -48.5986 -11.3998
LeftHand  -0.25398 0.0180481 5.50724
RightShoulder  5.95305 12.3669 31.5549
RightArm  4.1508 22.5902 41.0818
RightForeArm  -22.7102 53.6138 16.9906
RightHand  -7.97541 17.84 -38.7869
LeftUpLeg  -29.3463 17.8312 -4.43583
LeftLeg  22.8232 6.62711 3.20648
LeftFoot  -0.392276 0.230659 -2.21188
LeftToes  1.06245e-005 4.65856e-005 -8.18504e-006
844
root  -30.4164 39.0224 2.41354 131.505 -85.5215 -132.352
RightUpLeg  -21.449 -20.0746 4.41934
RightLeg  31.54 -1.44232 -1.20992
RightFoot  -7.9363 0.108475 -5.40091
RightToes  0.00048216 0.542163 -0.142577
Spine  39.1182 -1.59458 7.79064
Spine1  13.8738 0.737434 -0.115594
HEad  -6.07713 -3.32476 -2.04232
LeftShoulder1  10.6755 -18.4898 -42.1234
LeftArm  9.50799 -31.3603 -40.7983
LeftForeArm  17.5135 -44.9751 -9.96915
LeftHand  -0.25398 0.0180481 5.50724
RightShoulder  5.85631 12.6674 30.243
RightArm  4.42425 27.1239 42.0983
RightForeArm  -26.2311 49.4002 14.8009
RightHand  -7.89231 17.7814 -38.5021
LeftUpLeg  -27.5657 18.1236 -3.78801
LeftLeg  9.62564 8.43144 -1.79542
LeftFoot  2.88052 0.889979 -7.27798
LeftToes  1.06245e-005 4.65856e-005 -8.18504e-006
845
root  -31.4185 38.7964 2.40888 138.489 -84.0132 -138.8
RightUpLeg  -22.2607 -19.291 4.94665
RightLeg  35.1036 -1.58376 -1.45704
RightFoot  -9.69683 0.00372361 -4.6492
RightToes  0.00048216 0.542163 -0.142577
Spine  40.8556 -1.56739 7.53979
Spine1  15.1567 1.3273 -0.937568
HEad  -7.50628 -2.12882 -1.65562
LeftShoulder1  10.57 -18.9463 -40.7513
LeftArm  7.29154 -34.4155 -42.0934
LeftForeArm  18.3741 -41.7334 -8.77546
LeftHand  -0.25398 0.0180481 5.50724
RightShoulder  5.71358 12.9862 28.6425
RightArm  5.86425 32.271 43.4756
RightForeArm  -29.8079 44.4001 12.6749
RightHand  -7.88978 17.8821 -38.336
LeftUpLeg  -25.2342 8.8349 2.17588
LeftLeg  3.39077 18.7286 -6.66443
LeftFoot  7.8181 0.745389 -4.90986
LeftToes  1.06245e-005 4.65856e-005 -8.18504e-006
846
root  -32.2892 38.4955 2.45951 146.078 -82.875 -146.154
RightUpLeg  -25.1596 -19.0938 4.64556
RightLeg  41.9773 -1.20801 -1.45212
RightFoot  -8.28162 -0.00823184 -2.15527
RightToes  0.00048216 0.542163 -0.142577
Spine  43.6038 -1.27904 6.04303
Spine1  15.47 1.48338 -0.995971
HEad  -9.04113 -0.581723 -1.2968
LeftShoulder1  10.3241 -19.2492 -39.1284
LeftArm  4.87352 -37.0349 -43.5564
LeftForeArm  19.1852 -38.5704 -7.73561
LeftHand  -0.25398 0.0180481 5.50724
RightShoulder  5.51241 13.2393 26.8614
RightArm  8.36492 37.5682 45.5176
RightForeArm  -32.4956 38.808 10.6798
RightHand  -7.45676 17.3331 -37.201
LeftUpLeg  -26.8427 10.6587 0.312244
LeftLeg  5.84004 15.1806 -5.90096
LeftFoot  12.1605 -0.985008 4.37346
LeftToes  1.06245e-005 4.65856e-005 -8.18504e-006
847
root  -33.0513 38.1719 2.53594 153.433 -82.6389 -152.917
RightUpLeg  -30.9747 -19.9358 3.75499
RightLeg  51.5984 -0.908541 -1.63663
RightFoot  -2.52303 -0.052359 0.413888
RightToes  0.00048216 0.542163 -0.142577
Spine  46.7216 -0.952319 4.49412
Spine1  14.4137 1.09091 -0.570654
HEad  -11.2923 0.0625421 -1.63763
LeftShoulder1  10.2689 -19.6326 -38.1735
LeftArm  3.50831 -40.5667 -44.2774
LeftForeArm  18.8424 -34.9317 -6.73411
LeftHand  -0.25398 0.0180481 5.50724
RightShoulder  5.26701 13.369 25.0824
RightArm  10.2871 42.4357 47.5593
RightForeArm  -33.8909 33.8639 9.16648
RightHand  -6.89035 16.627 -35.6233
LeftUpLeg  -30.7104 18.2138 -6.09026
LeftLeg  11.5076 5.59742 -3.21426
LeftFoot  13.6447 -2.92584 12.8625
LeftToes  1.06245e-005 4.65856e-005 -8.18504e-006
848
root  -33.7211 37.9642 2.58433 162.528 -83.4788 -160.714
RightUpLeg  -37.8747 -21.433 2.69286
RightLeg  59.4454 -1.20407 -2.71917
RightFoot  4.91905 -0.174865 1.5187
RightToes  0.00048216 0.542163 -0.142577
Spine  49.468 -1.05061 3.57279
Spine1  13.8622 0.716587 -0.886385
HEad  -14.9552 -0.884731 -2.38913
LeftShoulder1  10.6533 -20.4453 -38.255
LeftArm  3.70177 -46.3152 -43.7342
LeftForeArm  17.6523 -30.6398 -5.70998
LeftHand  -0.25398 0.0180481 5.50724
RightShoulder  5.02187 13.3799 23.5359
RightArm  9.58554 47.2352 48.0563
RightForeArm  -34.71 30.3571 8.21679
RightHand  -6.75122 16.62 -34.9631
LeftUpLeg  -35.59 24.6069 -13.3641
LeftLeg  16.2672 -2.27997 -1.15896
LeftFoot  12.1096 -3.24866 15.1736
LeftToes  1.06245e-005 4.65856e-005 -8.18504e-006
